<svg xmlns="http://www.w3.org/2000/svg" width="128" height="128" overflow="visible"><switch><g><path d="M128 100.705C128 115.776 115.781 128 100.713 128H27.286C12.216 128 0 115.776 0 100.705V27.294C0 12.219 12.216 0 27.286 0h73.427C115.781 0 128 12.219 128 27.294z" fill="#244fa1"/><path d="M125.713 99.393c0 14.536-11.781 26.321-26.313 26.321H28.596c-14.529 0-26.311-11.785-26.311-26.321V28.604c0-14.537 11.781-26.319 26.311-26.319H99.4c14.531 0 26.313 11.782 26.313 26.319z" fill="#2492a1"/><linearGradient id="a" gradientUnits="userSpaceOnUse" x1="116.005" y1="116.006" x2="11.993" y2="11.994"><stop offset="0" stop-color="#264fa1"/><stop offset=".113" stop-color="#2658a1"/><stop offset=".298" stop-color="#2570a1"/><stop offset=".5" stop-color="#2492a1"/><stop offset=".615" stop-color="#2489a0"/><stop offset=".802" stop-color="#26719f"/><stop offset="1" stop-color="#27509d"/></linearGradient><path d="M123.428 98.085c0 13.995-11.348 25.344-25.334 25.344H29.909c-13.994 0-25.337-11.349-25.337-25.344V29.917c0-14 11.343-25.346 25.337-25.346h68.185c13.986 0 25.334 11.346 25.334 25.346z" fill="url(#a)"/><path d="M75.732 65.091c0 6.313-5.119 11.429-11.429 11.429-6.31 0-11.428-5.116-11.428-11.429 0-6.313 5.118-11.429 11.428-11.429 6.31 0 11.429 5.116 11.429 11.429z" fill="#fff"/><path d="M17.75 64.081c0 25.641 20.86 46.5 46.5 46.5s46.5-20.859 46.5-46.5c0-25.64-20.859-46.5-46.5-46.5s-46.5 20.86-46.5 46.5zm14 0c0-17.92 14.58-32.5 32.5-32.5s32.5 14.58 32.5 32.5c0 17.921-14.579 32.5-32.5 32.5s-32.5-14.579-32.5-32.5z" fill="#fff"/></g></switch></svg>